<?xml version="1.0" encoding="UTF-8"?>
<svg width="48px" height="48px" viewBox="0 0 48 48" version="1.1" xmlns="http://www.w3.org/2000/svg">
    <title>MetaMask Fox</title>
    <defs>
        <linearGradient x1="0%" y1="0%" x2="100%" y2="100%" id="foxGradient">
            <stop stop-color="#F6851B" offset="0%"></stop>
            <stop stop-color="#E2761B" offset="100%"></stop>
        </linearGradient>
    </defs>
    <g stroke="none" stroke-width="1" fill="none" fill-rule="evenodd">
        <g>
            <path d="M43.5,7L25.89,20.25L28.93,12.19L43.5,7Z" fill="#E2761B"></path>
            <path d="M4.5,7L22,20.34L19.07,12.19L4.5,7Z" fill="#E4761B"></path>
            <path d="M38.04,32.52L33.69,39.13L42.54,41.59L45.18,32.67L38.04,32.52Z" fill="#E4761B"></path>
            <path d="M2.85,32.67L5.46,41.59L14.31,39.13L9.96,32.52L2.85,32.67Z" fill="#E4761B"></path>
            <path d="M13.83,22.25L11.2,26.32L20,26.76L19.67,17.28L13.83,22.25Z" fill="#E4761B"></path>
            <path d="M34.17,22.25L28.22,17.16L28,26.76L36.8,26.32L34.17,22.25Z" fill="#E4761B"></path>
            <path d="M14.31,39.13L19.33,36.59L15.04,32.74L14.31,39.13Z" fill="#E4761B"></path>
            <path d="M28.67,36.59L33.69,39.13L32.93,32.74L28.67,36.59Z" fill="#E4761B"></path>
            <path d="M33.69,39.13L28.67,36.59L29.13,40.07L29.06,41.47L33.69,39.13Z" fill="#D7C1B3"></path>
            <path d="M14.31,39.13L18.94,41.47L18.9,40.07L19.33,36.59L14.31,39.13Z" fill="#D7C1B3"></path>
            <path d="M19.04,30.53L14.91,29.25L17.79,27.74L19.04,30.53Z" fill="#233447"></path>
            <path d="M28.96,30.53L30.21,27.74L33.12,29.25L28.96,30.53Z" fill="#233447"></path>
            <path d="M14.31,39.13L15.09,32.52L9.96,32.67L14.31,39.13Z" fill="#CD6116"></path>
            <path d="M32.91,32.52L33.69,39.13L38.04,32.67L32.91,32.52Z" fill="#CD6116"></path>
            <path d="M36.8,26.32L28,26.76L28.96,30.53L30.21,27.74L33.12,29.25L36.8,26.32Z" fill="#CD6116"></path>
            <path d="M14.91,29.25L17.79,27.74L19.04,30.53L20,26.76L11.2,26.32L14.91,29.25Z" fill="#CD6116"></path>
            <path d="M11.2,26.32L15.04,32.74L14.91,29.25L11.2,26.32Z" fill="#E4751F"></path>
            <path d="M33.12,29.25L32.93,32.74L36.8,26.32L33.12,29.25Z" fill="#E4751F"></path>
            <path d="M20,26.76L19.04,30.53L20.22,36.14L20.44,28.53L20,26.76Z" fill="#E4751F"></path>
            <path d="M28,26.76L27.6,28.5L27.75,36.14L28.96,30.53L28,26.76Z" fill="#E4751F"></path>
            <path d="M28.96,30.53L27.75,36.14L28.67,36.59L32.93,32.74L33.12,29.25L28.96,30.53Z" fill="#F6851B"></path>
            <path d="M14.91,29.25L15.04,32.74L19.33,36.59L20.22,36.14L19.04,30.53L14.91,29.25Z" fill="#F6851B"></path>
            <path d="M29.06,41.47L29.13,40.07L28.7,39.7H19.3L18.9,40.07L18.94,41.47L14.31,39.13L15.98,40.47L19.26,42.75H28.71L32.02,40.47L33.69,39.13L29.06,41.47Z" fill="#C0AD9E"></path>
            <path d="M28.67,36.59L27.75,36.14H20.22L19.33,36.59L18.9,40.07L19.3,39.7H28.7L29.13,40.07L28.67,36.59Z" fill="#161616"></path>
        </g>
    </g>
</svg>